<svg width="24" height="24" viewBox="0 0 24 24" fill="none" xmlns="http://www.w3.org/2000/svg">
<g clip-path="url(#clip0_487_1672)">
<path d="M11.9926 4.02783C7.59199 4.02783 4.02441 7.59531 4.02441 11.9959C4.02441 16.3967 7.59199 19.9639 11.9926 19.9639C16.3937 19.9639 19.9609 16.3967 19.9609 11.9959C19.9609 7.5956 16.3938 4.02783 11.9926 4.02783ZM15.6468 15.5201C15.504 15.7542 15.1977 15.8284 14.9636 15.6847C13.0927 14.542 10.7376 14.2832 7.96393 14.9169C7.69666 14.9778 7.43023 14.8103 7.36934 14.5429C7.30816 14.2756 7.47496 14.0091 7.7429 13.9482C10.7782 13.2548 13.3818 13.5534 15.4822 14.8369C15.7162 14.9806 15.7905 15.2861 15.6468 15.5201ZM16.6221 13.3505C16.4422 13.6428 16.0597 13.7351 15.7676 13.5553C13.6258 12.2388 10.3609 11.8575 7.82749 12.6265C7.49893 12.7257 7.15192 12.5406 7.0522 12.2126C6.95324 11.884 7.1385 11.5377 7.46649 11.4378C10.3603 10.5597 13.9579 10.9851 16.4175 12.4965C16.7096 12.6764 16.8019 13.0588 16.6221 13.3505ZM16.7058 11.0912C14.1377 9.56588 9.90063 9.42563 7.44869 10.1698C7.05496 10.2892 6.63858 10.0669 6.51926 9.67321C6.39994 9.27929 6.62203 8.8632 7.01604 8.7435C9.83069 7.88904 14.5097 8.05413 17.4664 9.80937C17.8213 10.0196 17.9374 10.477 17.7271 10.8306C17.5178 11.1848 17.0588 11.3015 16.7058 11.0912Z" fill="#B3B3B3"/>
</g>
<defs>
<clipPath id="clip0_487_1672">
<rect width="16" height="16" fill="white" transform="translate(4 4)"/>
</clipPath>
</defs>
</svg>
