<svg width="16" height="16" viewBox="0 0 16 16" fill="none" xmlns="http://www.w3.org/2000/svg">
<path d="M5.432 6.016L4.376 6.344L4.224 5.832L5.592 5.36H6.056V11H5.432V6.016ZM9.39519 8.416C9.60852 8.416 9.80052 8.38133 9.97119 8.312C10.1472 8.23733 10.2939 8.14133 10.4112 8.024C10.5339 7.90667 10.6272 7.77333 10.6912 7.624C10.7552 7.46933 10.7872 7.312 10.7872 7.152V7.136C10.7872 6.96 10.7525 6.79467 10.6832 6.64C10.6139 6.48533 10.5152 6.352 10.3872 6.24C10.2645 6.12267 10.1152 6.032 9.93919 5.968C9.76319 5.89867 9.57119 5.864 9.36319 5.864C9.15519 5.864 8.96585 5.90133 8.79519 5.976C8.62985 6.04533 8.48852 6.14133 8.37119 6.264C8.25919 6.38133 8.17119 6.52 8.10719 6.68C8.04852 6.83467 8.01919 7 8.01919 7.176V7.192C8.01919 7.368 8.05119 7.53333 8.11519 7.688C8.18452 7.83733 8.27785 7.96533 8.39519 8.072C8.51785 8.17867 8.66452 8.264 8.83519 8.328C9.00585 8.38667 9.19252 8.416 9.39519 8.416ZM9.22719 11.096C8.85919 11.096 8.53919 11.032 8.26719 10.904C7.99519 10.7707 7.73919 10.6053 7.49919 10.408L7.86719 9.92C8.09652 10.1227 8.32052 10.2747 8.53919 10.376C8.75785 10.472 8.99252 10.52 9.24319 10.52C9.49385 10.52 9.72319 10.4587 9.93119 10.336C10.1392 10.2133 10.3152 10.0453 10.4592 9.832C10.6085 9.61333 10.7205 9.35467 10.7952 9.056C10.8752 8.752 10.9125 8.42133 10.9072 8.064C10.7525 8.30933 10.5472 8.52 10.2912 8.696C10.0352 8.872 9.71252 8.96 9.32319 8.96C9.03519 8.96 8.77119 8.91733 8.53119 8.832C8.29119 8.74667 8.08585 8.62667 7.91519 8.472C7.74452 8.31733 7.61119 8.13333 7.51519 7.92C7.41919 7.70667 7.37119 7.47467 7.37119 7.224V7.208C7.37119 6.94133 7.41919 6.69333 7.51519 6.464C7.61652 6.22933 7.75519 6.02667 7.93119 5.856C8.10719 5.68533 8.31785 5.552 8.56319 5.456C8.81385 5.35467 9.08852 5.304 9.38719 5.304C9.70719 5.304 9.98719 5.35467 10.2272 5.456C10.4672 5.55733 10.6779 5.69867 10.8592 5.88C11.0725 6.09333 11.2405 6.368 11.3632 6.704C11.4912 7.04 11.5552 7.488 11.5552 8.048V8.064C11.5552 8.50667 11.4992 8.91467 11.3872 9.288C11.2752 9.66133 11.1152 9.98133 10.9072 10.248C10.7045 10.5147 10.4592 10.7227 10.1712 10.872C9.88852 11.0213 9.57385 11.096 9.22719 11.096Z" fill="white"/>
<rect x="2.5" y="3" width="11" height="11" rx="5.5" stroke="#C50000"/>
</svg>
