<svg width="24" height="24" viewBox="0 0 24 24" fill="none" xmlns="http://www.w3.org/2000/svg">
<g clip-path="url(#clip0_279_2985)">
<path d="M11.9926 4.02832C7.59199 4.02832 4.02441 7.5958 4.02441 11.9964C4.02441 16.3972 7.59199 19.9644 11.9926 19.9644C16.3937 19.9644 19.9609 16.3972 19.9609 11.9964C19.9609 7.59609 16.3938 4.02832 11.9926 4.02832ZM15.6468 15.5206C15.504 15.7547 15.1977 15.8289 14.9636 15.6852C13.0927 14.5425 10.7376 14.2837 7.96393 14.9174C7.69666 14.9783 7.43023 14.8108 7.36934 14.5434C7.30816 14.276 7.47496 14.0096 7.7429 13.9487C10.7782 13.2553 13.3818 13.5538 15.4822 14.8374C15.7162 14.9811 15.7905 15.2865 15.6468 15.5206ZM16.6221 13.351C16.4422 13.6433 16.0597 13.7356 15.7676 13.5558C13.6258 12.2392 10.3609 11.858 7.82749 12.627C7.49893 12.7262 7.15192 12.5411 7.0522 12.2131C6.95324 11.8845 7.1385 11.5382 7.46649 11.4383C10.3603 10.5602 13.9579 10.9855 16.4175 12.497C16.7096 12.6768 16.8019 13.0593 16.6221 13.351ZM16.7058 11.0917C14.1377 9.56637 9.90063 9.42612 7.44869 10.1703C7.05496 10.2897 6.63858 10.0674 6.51926 9.6737C6.39994 9.27978 6.62203 8.86368 7.01604 8.74398C9.83069 7.88953 14.5097 8.05462 17.4664 9.80986C17.8213 10.02 17.9374 10.4774 17.7271 10.8311C17.5178 11.1853 17.0588 11.302 16.7058 11.0917Z" fill="#B3B3B3"/>
</g>
<defs>
<clipPath id="clip0_279_2985">
<rect width="16" height="16" fill="white" transform="translate(4 4)"/>
</clipPath>
</defs>
</svg>
