<svg width="70" height="26" viewBox="0 0 70 26" fill="none" xmlns="http://www.w3.org/2000/svg">
<rect width="70" height="26" rx="13" fill="#292929"/>
<path d="M21.8223 9.93164H20.9092V12.5957C21.3962 12.5563 21.8402 12.5062 22.2412 12.4453L22.3057 13.208C20.791 13.473 18.8467 13.6055 16.4727 13.6055L16.3545 12.7461L17.5361 12.7407V9.93164H16.623V9.09375H21.8223V9.93164ZM23.917 10.8984H25.3135V11.7471H23.917V14.7656H22.8965V8.28809H23.917V10.8984ZM21.4463 14.4863C21.4427 14.9053 21.5788 15.2938 21.8545 15.6519C22.1302 16.0099 22.5098 16.3125 22.9932 16.5596C23.4801 16.8031 24.028 16.9714 24.6367 17.0645L24.2285 17.8701C23.4873 17.7412 22.8267 17.5031 22.2466 17.1558C21.6701 16.8084 21.2368 16.3805 20.9468 15.8721C20.6567 16.3805 20.2199 16.8084 19.6362 17.1558C19.0562 17.5031 18.3955 17.7412 17.6543 17.8701L17.2568 17.0645C17.8584 16.9714 18.4009 16.8031 18.8843 16.5596C19.3677 16.3125 19.7472 16.0099 20.0229 15.6519C20.2987 15.2902 20.4365 14.9017 20.4365 14.4863V14.2822H21.4463V14.4863ZM18.5244 12.7246C19.1546 12.7031 19.6165 12.6834 19.9102 12.6655V9.93164H18.5244V12.7246ZM33.8328 17.9131H32.8445V12.9502H31.6629V17.4512H30.7068V8.51367H31.6629V12.1123H32.8445V8.28809H33.8328V17.9131ZM29.8475 9.4375C29.8475 10.3685 29.74 11.2225 29.5252 11.9995C29.3139 12.7765 28.9397 13.5034 28.4026 14.1802C27.8655 14.8534 27.1297 15.4495 26.1951 15.9688L25.5936 15.2383C26.2846 14.8551 26.854 14.4308 27.3016 13.9653C27.7527 13.4998 28.1019 12.9878 28.3489 12.4292L25.7547 12.7031L25.6258 11.8115L28.6282 11.6289C28.7428 11.2135 28.8162 10.7588 28.8484 10.2646H26.1092V9.4375H29.8475ZM39.6559 9.65234C39.6559 10.1608 39.8188 10.6549 40.1446 11.1348C40.4741 11.6146 40.9091 12.0246 41.4498 12.3647C41.9905 12.7013 42.567 12.9251 43.1793 13.0361L42.7066 13.8848C42.1946 13.7738 41.704 13.5911 41.235 13.3369C40.7659 13.0827 40.3469 12.7729 39.9781 12.4077C39.6129 12.0389 39.3282 11.6325 39.1241 11.1885C38.9164 11.6289 38.63 12.0335 38.2647 12.4023C37.9031 12.7676 37.4877 13.0773 37.0187 13.3315C36.5496 13.5858 36.0572 13.7702 35.5416 13.8848L35.0904 13.0361C35.6956 12.9215 36.2667 12.696 36.8038 12.3594C37.3409 12.0192 37.7706 11.611 38.0929 11.1348C38.4187 10.6549 38.5816 10.1608 38.5816 9.65234V8.92188H39.6559V9.65234ZM43.5768 16.6455H34.7682V15.7969H43.5768V16.6455ZM51.7846 14.2285H45.0814V9.08301H51.6879V9.91016H46.1127V11.21H51.4838V12.0156H46.1127V13.4121H51.7846V14.2285ZM52.7836 16.6992H43.975V15.8613H52.7836V16.6992Z" fill="white"/>
</svg>
