<svg width="51" height="26" viewBox="0 0 51 26" fill="none" xmlns="http://www.w3.org/2000/svg">
<rect width="51" height="26" rx="13" fill="#292929"/>
<path d="M20.0713 10.1465C20.0713 10.4508 20.1626 10.7373 20.3452 11.0059C20.5278 11.2708 20.7892 11.5018 21.1294 11.6987C21.4731 11.8957 21.876 12.0443 22.3379 12.1445L21.9189 12.9395C21.3711 12.8177 20.8966 12.6243 20.4956 12.3594C20.0981 12.0944 19.792 11.7757 19.5771 11.4033C19.3695 11.8079 19.0615 12.1553 18.6533 12.4453C18.2451 12.7318 17.7581 12.9395 17.1924 13.0684L16.7627 12.2734C17.2282 12.1768 17.6328 12.0228 17.9766 11.8115C18.3239 11.5967 18.5889 11.346 18.7715 11.0596C18.9577 10.7695 19.0508 10.4652 19.0508 10.1465H16.9775V9.34082H19.0508V8.30957H20.0713V9.34082H22.1338V10.1465H20.0713ZM24.3574 17.9131H23.3477V8.29883H24.3574V17.9131ZM16.3438 13.6592C17.6042 13.6592 18.7428 13.6431 19.7598 13.6108C20.7803 13.575 21.7542 13.498 22.6816 13.3799L22.7568 14.1211C21.9368 14.2572 21.0452 14.3538 20.082 14.4111V17.623H19.0615V14.4648C18.3561 14.4935 17.4967 14.5078 16.4834 14.5078L16.3438 13.6592ZM34.4881 10.7158H33.1238V11.9297H34.4881V12.7676H33.1238V14.4648H32.1033V8.28809H33.1238V9.87793H34.4881V10.7158ZM30.0516 14.54C30.7033 14.54 31.2672 14.6081 31.7435 14.7441C32.2233 14.8766 32.5903 15.07 32.8445 15.3242C33.1023 15.5749 33.2312 15.8757 33.2312 16.2266C33.2312 16.5703 33.1023 16.8675 32.8445 17.1182C32.5903 17.3724 32.2233 17.5658 31.7435 17.6982C31.2672 17.8307 30.7033 17.8952 30.0516 17.8916C29.3927 17.8952 28.8234 17.8307 28.3436 17.6982C27.8637 17.5658 27.4949 17.3724 27.2371 17.1182C26.9829 16.8675 26.8576 16.5703 26.8611 16.2266C26.8576 15.8757 26.9829 15.5749 27.2371 15.3242C27.4913 15.07 27.8584 14.8766 28.3382 14.7441C28.8216 14.6081 29.3927 14.54 30.0516 14.54ZM30.0516 15.3242C29.3533 15.3242 28.8144 15.4012 28.4349 15.5552C28.0553 15.7091 27.8673 15.9329 27.8709 16.2266C27.8637 16.5059 28.0517 16.7243 28.4349 16.8818C28.8216 17.0394 29.3605 17.1182 30.0516 17.1182C30.7319 17.1182 31.2636 17.0394 31.6468 16.8818C32.0299 16.7243 32.2215 16.5059 32.2215 16.2266C32.2215 15.9329 32.0317 15.7091 31.6521 15.5552C31.2726 15.4012 30.7391 15.3242 30.0516 15.3242ZM31.3084 10.125H25.5721V9.31934H27.9354V8.21289H28.9559V9.31934H31.3084V10.125ZM28.4402 10.5654C28.8986 10.5654 29.3032 10.637 29.6541 10.7803C30.0086 10.9235 30.2825 11.1258 30.4759 11.3872C30.6728 11.645 30.7713 11.944 30.7713 12.2842C30.7713 12.6243 30.6728 12.9233 30.4759 13.1812C30.2825 13.439 30.0086 13.6377 29.6541 13.7773C29.3032 13.917 28.8986 13.985 28.4402 13.9814C27.9747 13.985 27.5647 13.917 27.2103 13.7773C26.8593 13.6377 26.5854 13.439 26.3885 13.1812C26.1951 12.9233 26.0984 12.6243 26.0984 12.2842C26.0984 11.944 26.1951 11.645 26.3885 11.3872C26.5854 11.1258 26.8593 10.9235 27.2103 10.7803C27.5647 10.637 27.9747 10.5654 28.4402 10.5654ZM28.4402 11.3281C28.1681 11.3281 27.9282 11.3675 27.7205 11.4463C27.5164 11.5215 27.3589 11.6325 27.2479 11.7793C27.1368 11.9225 27.0831 12.0908 27.0867 12.2842C27.0831 12.4704 27.1368 12.6333 27.2479 12.7729C27.3589 12.9126 27.5164 13.02 27.7205 13.0952C27.9282 13.1704 28.1681 13.208 28.4402 13.208C28.852 13.208 29.1832 13.1257 29.4339 12.9609C29.6845 12.7926 29.8117 12.5671 29.8152 12.2842C29.8117 11.9906 29.6845 11.7578 29.4339 11.5859C29.1832 11.4141 28.852 11.3281 28.4402 11.3281Z" fill="white"/>
</svg>
