<svg width="24" height="24" viewBox="0 0 24 24" fill="none" xmlns="http://www.w3.org/2000/svg">
<path fill-rule="evenodd" clip-rule="evenodd" d="M11.632 3.10851C11.7447 3.03889 11.872 3.00264 12 3C12.128 3.00264 12.2553 3.03889 12.368 3.10851L19.6559 7.6074C19.8698 7.73949 20 7.97243 20 8.22319V19.2755C20 19.6757 19.6744 20 19.2727 20H14.0606C13.6589 20 13.3333 19.6757 13.3333 19.2755V15.5277C13.3333 15.1276 13.0077 14.8032 12.606 14.8032H12H11.394C10.9923 14.8032 10.6667 15.1276 10.6667 15.5277V19.2755C10.6667 19.6757 10.3411 20 9.9394 20H4.72727C4.32561 20 4 19.6757 4 19.2755V8.22319C4 7.97243 4.13019 7.73949 4.34417 7.6074L11.632 3.10851Z" fill="white"/>
</svg>
